<?xml version="1.0" encoding="UTF-8"?>
<!DOCTYPE svg PUBLIC "-//W3C//DTD SVG 1.1//EN" "http://www.w3.org/Graphics/SVG/1.1/DTD/svg11.dtd">
<svg xmlns="http://www.w3.org/2000/svg" version="1.1" width="200px" height="200px" style="shape-rendering:geometricPrecision; text-rendering:geometricPrecision; image-rendering:optimizeQuality; fill-rule:evenodd; clip-rule:evenodd" xmlns:xlink="http://www.w3.org/1999/xlink">
<g><path style="opacity:1" fill="#222222" d="M -0.5,-0.5 C 66.1667,-0.5 132.833,-0.5 199.5,-0.5C 199.5,66.1667 199.5,132.833 199.5,199.5C 132.833,199.5 66.1667,199.5 -0.5,199.5C -0.5,132.833 -0.5,66.1667 -0.5,-0.5 Z"/></g>
<g><path style="opacity:1" fill="#d2402d" d="M 99.5,15.5 C 99.5,22.8333 99.5,30.1667 99.5,37.5C 81.2205,47.9399 63.0539,58.6065 45,69.5C 44.3333,90.8333 44.3333,112.167 45,133.5C 46.6667,134.5 48.3333,135.5 50,136.5C 50.3333,126.167 50.6667,115.833 51,105.5C 55.6686,101.663 60.1686,97.6633 64.5,93.5C 65.1667,110.5 65.8333,127.5 66.5,144.5C 67.4057,145.965 68.739,146.965 70.5,147.5C 71.3331,127.508 71.8331,107.508 72,87.5C 79.6709,80.6617 87.1709,73.6617 94.5,66.5C 95.8333,105.167 95.8333,143.833 94.5,182.5C 71.3074,169.985 48.1407,157.318 25,144.5C 24.1668,115.494 24.3335,86.4943 25.5,57.5C 50.2213,43.4762 74.888,29.4762 99.5,15.5 Z"/></g>
<g><path style="opacity:1" fill="#9a2424" d="M 99.5,15.5 C 124.112,29.4762 148.779,43.4762 173.5,57.5C 174.667,86.4943 174.833,115.494 174,144.5C 150.859,157.318 127.693,169.985 104.5,182.5C 103.167,143.833 103.167,105.167 104.5,66.5C 111.829,73.6617 119.329,80.6617 127,87.5C 127.167,107.508 127.667,127.508 128.5,147.5C 129.901,146.479 131.235,145.479 132.5,144.5C 133.167,127.5 133.833,110.5 134.5,93.5C 138.831,97.6633 143.331,101.663 148,105.5C 148.333,115.833 148.667,126.167 149,136.5C 151.015,135.303 152.849,133.97 154.5,132.5C 155.167,122.005 155.5,111.339 155.5,100.5C 155.499,89.4784 154.832,78.8118 153.5,68.5C 135.5,58.1667 117.5,47.8333 99.5,37.5C 99.5,30.1667 99.5,22.8333 99.5,15.5 Z"/></g>
<g><path style="opacity:1" fill="#a8392a" d="M 94.5,66.5 C 94.56,65.9569 94.8933,65.6236 95.5,65.5C 96.8333,104.833 96.8333,144.167 95.5,183.5C 94.8933,183.376 94.56,183.043 94.5,182.5C 95.8333,143.833 95.8333,105.167 94.5,66.5 Z"/></g>
<g><path style="opacity:1" fill="#7d2423" d="M 104.5,66.5 C 103.167,105.167 103.167,143.833 104.5,182.5C 104.44,183.043 104.107,183.376 103.5,183.5C 102.167,144.167 102.167,104.833 103.5,65.5C 104.107,65.6236 104.44,65.9569 104.5,66.5 Z"/></g>
<g><path style="opacity:1" fill="#7e2423" d="M 153.5,68.5 C 154.832,78.8118 155.499,89.4784 155.5,100.5C 155.5,111.339 155.167,122.005 154.5,132.5C 154.822,111.091 154.488,89.7579 153.5,68.5 Z"/></g>
<g><path style="opacity:1" fill="#4f2a25" d="M 64.5,93.5 C 64.56,92.9569 64.8933,92.6236 65.5,92.5C 66.4995,109.821 66.8328,127.154 66.5,144.5C 65.8333,127.5 65.1667,110.5 64.5,93.5 Z"/></g>
<g><path style="opacity:1" fill="#412323" d="M 134.5,93.5 C 133.833,110.5 133.167,127.5 132.5,144.5C 132.167,127.154 132.5,109.821 133.5,92.5C 134.107,92.6236 134.44,92.9569 134.5,93.5 Z"/></g>
</svg>
